g N64_Cart
v 0.050753344 0.00977915 -4.436998E-09
v 0.050753344 0.0049791504 0.007999995
v 0.050753344 0.00977915 0.007999995
v 0.050753344 0.0049791504 -4.436998E-09
v 0.051227465 0.0049791504 0.009136653
v 0.051227465 0.00977915 0.009136653
v 0.05239055 0.00977915 0.009599995
v 0.05239055 0.0049791504 0.009599995
v 0.05893937 0.00977915 0.009599994
v 0.05893937 0.0049791504 0.009599994
v 0.04829754 0.00977915 0.0023999957
v 0.042567324 0.0033821405 0.0023999962
v 0.04829754 0.0033821487 0.0023999957
v 0.042567324 0.00977915 0.0023999962
v 0.05893937 0.0049791504 0.009599994
v 0.058939375 0.00977915 0.06399999
v 0.05893937 0.00977915 0.009599994
v 0.058939375 0.00017915075 0.06399999
v 0.05893937 0.0049791504 -5.152643E-09
v 0.05893937 0.00017915075 -5.152643E-09
v 0.05774651 -0.0047713243 0.06442538
v 0.057746504 -0.0047713243 -5.0483595E-09
v 0.054134645 -0.008432852 0.06571267
v 0.05413464 -0.008432852 -4.7326E-09
v 0.04911615 -0.009779146 0.067501046
v 0.049116142 -0.009779146 -4.2938693E-09
v 0.030021625 -0.009779146 0.07237401
v -0.049116142 -0.009779146 4.2938693E-09
v -0.03002161 -0.009779146 0.072374016
v -0.010062105 -0.009779146 0.074885145
v 0.010062116 -0.009779146 0.074885145
v -0.04911614 -0.009779146 0.06750106
v -0.054134633 -0.008432852 0.06571268
v -0.05413464 -0.008432852 4.7326E-09
v -0.0577465 -0.0047713243 0.06442539
v -0.057746504 -0.0047713243 5.0483595E-09
v -0.05893937 0.00017915075 5.152643E-09
v -0.058939364 0.00017915075 0.063999996
v -0.058939364 0.00977915 0.063999996
v -0.05893937 0.0049791504 0.009600005
v -0.05893937 0.00977915 0.009600005
v -0.05893937 0.0049791504 5.152643E-09
v 0.010062116 -0.009779146 0.074885145
v -0.010062105 0.00977915 0.074885145
v 0.010062116 0.00977915 0.074885145
v -0.010062105 -0.009779146 0.074885145
v 0.030021625 -0.009779146 0.07237401
v 0.030021625 0.00977915 0.07237401
v 0.04911615 -0.009779146 0.067501046
v 0.049144465 0.00977915 0.06749001
v -0.03002161 0.00977915 0.072374016
v -0.03002161 -0.009779146 0.072374016
v -0.049144458 0.00977915 0.06749003
v -0.04911614 -0.009779146 0.06750106
v 0.054134645 -0.008432852 0.06571267
v 0.05774651 -0.0047713243 0.06442538
v 0.058939375 0.00017915075 0.06399999
v 0.058939375 0.00977915 0.06399999
v -0.054134633 -0.008432852 0.06571268
v -0.0577465 -0.0047713243 0.06442539
v -0.058939364 0.00017915075 0.063999996
v -0.058939364 0.00977915 0.063999996
v 0.051227465 0.0049791504 0.009136653
v 0.05893937 0.0049791504 0.009599994
v 0.05239055 0.0049791504 0.009599995
v 0.050753344 0.0049791504 0.007999995
v 0.05893937 0.0049791504 -5.152643E-09
v 0.050753344 0.0049791504 -4.436998E-09
v -0.042567324 0.0017791506 3.7213532E-09
v -0.042567324 0.0033821356 0.0014371119
v -0.042567324 0.0017791506 0.0014371073
v -0.042567324 0.00977915 3.7213532E-09
v -0.042567324 0.00977915 0.0024000036
v -0.042567324 0.0033821356 0.0024000036
v -0.042567324 0.00977915 0.0024000036
v -0.04829754 0.0033821438 0.002400004
v -0.042567324 0.0033821356 0.0024000036
v -0.04829754 0.00977915 0.002400004
v -0.050753344 0.00977915 0.008000003
v -0.050753344 0.0049791504 4.436998E-09
v -0.050753344 0.00977915 4.436998E-09
v -0.050753344 0.0049791504 0.008000003
v -0.051227465 0.00977915 0.009136662
v -0.051227465 0.0049791504 0.009136662
v -0.05239055 0.0049791504 0.009600004
v -0.05239055 0.00977915 0.009600004
v -0.05893937 0.0049791504 0.009600005
v -0.05893937 0.00977915 0.009600005
v -0.05893937 0.0049791504 0.009600005
v -0.051227465 0.0049791504 0.009136662
v -0.05239055 0.0049791504 0.009600004
v -0.050753344 0.0049791504 0.008000003
v -0.050753344 0.0049791504 4.436998E-09
v -0.05893937 0.0049791504 5.152643E-09
v 0.036018506 0.00657915 8.772091E-09
v 0.036018506 -0.0065791467 0.011200021
v 0.036018506 -0.0065791467 8.772091E-09
v 0.036018506 0.00657915 0.011200021
v -0.036018506 -0.0065791467 0.0112000285
v 0.036018506 -0.0065791467 8.772091E-09
v 0.036018506 -0.0065791467 0.011200021
v -0.036018506 -0.0065791467 1.5069766E-08
v -0.036018506 0.00657915 0.0112000285
v 0.036018506 0.00657915 8.772091E-09
v -0.036018506 0.00657915 1.5069766E-08
v 0.036018506 0.00657915 0.011200021
v -0.036018506 0.00657915 0.0112000285
v -0.036018506 -0.0065791467 1.5069766E-08
v -0.036018506 -0.0065791467 0.0112000285
v -0.036018506 0.00657915 1.5069766E-08
v -0.036018506 -0.0065791467 0.0112000285
v 0.036018506 0.00657915 0.011200021
v -0.036018506 0.00657915 0.0112000285
v 0.036018506 -0.0065791467 0.011200021
v -0.03274409 -0.00062084274 0.00080000446
v 0.03274409 -0.0006208492 0.011719999
v 0.03274409 -0.00062084827 0.00079999876
v -0.03274409 -0.00062084367 0.011720004
v 0.03274409 0.0009791517 0.00079999876
v -0.03274409 0.0009791562 0.011720004
v -0.03274409 0.0009791572 0.00080000446
v 0.03274409 0.0009791508 0.011719999
v -0.03274409 -0.00062084274 0.00080000446
v 0.03274409 0.0009791517 0.00079999876
v -0.03274409 0.0009791572 0.00080000446
v 0.03274409 -0.00062084827 0.00079999876
v 0.03274409 -0.0006208492 0.011719999
v 0.03274409 0.0009791517 0.00079999876
v 0.03274409 -0.00062084827 0.00079999876
v 0.03274409 0.0009791508 0.011719999
v -0.03274409 -0.00062084367 0.011720004
v -0.03274409 0.0009791572 0.00080000446
v -0.03274409 0.0009791562 0.011720004
v -0.03274409 -0.00062084274 0.00080000446
v 0.058939375 0.00977915 0.06399999
v 0.05239055 0.00977915 0.009599995
v 0.05893937 0.00977915 0.009599994
v 0.051227465 0.00977915 0.009136653
v 0.010062116 0.00977915 0.074885145
v -0.058939364 0.00977915 0.063999996
v -0.050753344 0.00977915 0.008000003
v 0.042567324 0.00977915 0.0023999962
v 0.04829754 0.00977915 0.0023999957
v 0.050753344 0.00977915 0.007999995
v 0.04829754 0.00977915 -4.2223047E-09
v 0.050753344 0.00977915 -4.436998E-09
v -0.042567324 0.00977915 0.0024000036
v -0.042567324 0.00977915 3.7213532E-09
v 0.042567324 0.00977915 -3.7213532E-09
v -0.04829754 0.00977915 0.002400004
v -0.050753344 0.00977915 4.436998E-09
v -0.04829754 0.00977915 4.2223047E-09
v -0.051227465 0.00977915 0.009136662
v -0.05239055 0.00977915 0.009600004
v -0.05893937 0.00977915 0.009600005
v -0.03002161 0.00977915 0.072374016
v -0.049144458 0.00977915 0.06749003
v -0.010062105 0.00977915 0.074885145
v 0.030021625 0.00977915 0.07237401
v 0.049144465 0.00977915 0.06749001
v 0.04829754 0.0017791506 -4.2223047E-09
v 0.050753344 0.00977915 -4.436998E-09
v 0.04829754 0.00977915 -4.2223047E-09
v 0.050753344 0.0049791504 -4.436998E-09
v 0.05413464 -0.008432852 -4.7326E-09
v 0.05893937 0.00017915075 -5.152643E-09
v 0.05893937 0.0049791504 -5.152643E-09
v 0.057746504 -0.0047713243 -5.0483595E-09
v 0.042567324 0.0017791506 -3.7213532E-09
v 0.036018506 -0.0065791467 8.772091E-09
v -0.036018506 -0.0065791467 1.5069766E-08
v -0.049116142 -0.009779146 4.2938693E-09
v 0.049116142 -0.009779146 -4.2938693E-09
v -0.036018506 0.00657915 1.5069766E-08
v -0.042567324 0.0017791506 3.7213532E-09
v -0.04829754 0.0017791506 4.2223047E-09
v -0.050753344 0.0049791504 4.436998E-09
v -0.05893937 0.0049791504 5.152643E-09
v -0.057746504 -0.0047713243 5.0483595E-09
v -0.05413464 -0.008432852 4.7326E-09
v -0.05893937 0.00017915075 5.152643E-09
v -0.04829754 0.00977915 4.2223047E-09
v -0.050753344 0.00977915 4.436998E-09
v -0.042567324 0.00977915 3.7213532E-09
v 0.042567324 0.00977915 -3.7213532E-09
v 0.036018506 0.00657915 8.772091E-09
v 0.04829754 0.0017791506 -4.2223047E-09
v 0.04829754 0.00338215 0.0014370953
v 0.04829754 0.0017791506 0.0014370994
v 0.04829754 0.00977915 -4.2223047E-09
v 0.04829754 0.00977915 0.0023999957
v 0.04829754 0.0033821487 0.0023999957
v 0.042567324 0.0017791506 0.0014370993
v 0.042567324 0.00977915 -3.7213532E-09
v 0.042567324 0.0017791506 -3.7213532E-09
v 0.042567324 0.0033821403 0.001437102
v 0.042567324 0.00977915 0.0023999962
v 0.042567324 0.0033821405 0.0023999962
v 0.04829754 0.0017791506 0.0014370994
v 0.042567324 0.0017791506 -3.7213532E-09
v 0.04829754 0.0017791506 -4.2223047E-09
v 0.042567324 0.0017791506 0.0014370993
v 0.042567324 0.0017791506 0.0014370993
v 0.04829754 0.00338215 0.0014370953
v 0.042567324 0.0033821403 0.001437102
v 0.04829754 0.0017791506 0.0014370994
v 0.042567324 0.0033821403 0.001437102
v 0.04829754 0.0033821487 0.0023999957
v 0.042567324 0.0033821405 0.0023999962
v 0.04829754 0.00338215 0.0014370953
v -0.04829754 0.0017791506 0.0014371048
v -0.04829754 0.00977915 4.2223047E-09
v -0.04829754 0.0017791506 4.2223047E-09
v -0.04829754 0.0033821478 0.0014371012
v -0.04829754 0.00977915 0.002400004
v -0.04829754 0.0033821438 0.002400004
v -0.042567324 0.0017791506 0.0014371073
v -0.04829754 0.0017791506 4.2223047E-09
v -0.042567324 0.0017791506 3.7213532E-09
v -0.04829754 0.0017791506 0.0014371048
v -0.04829754 0.0033821438 0.002400004
v -0.042567324 0.0033821356 0.0014371119
v -0.042567324 0.0033821356 0.0024000036
v -0.04829754 0.0033821478 0.0014371012
v -0.04829754 0.0033821478 0.0014371012
v -0.042567324 0.0017791506 0.0014371073
v -0.042567324 0.0033821356 0.0014371119
v -0.04829754 0.0017791506 0.0014371048
vt 0.08562803 0.54022676
vt 0.06163891 0.58020884
vt 0.08562803 0.58020896
vt 0.06163891 0.54022676
vt 0.06163891 0.58588976
vt 0.08562803 0.58588976
vt 0.08562803 0.5915707
vt 0.06163891 0.5915707
vt 0.08562803 0.6235563
vt 0.06163891 0.6235563
vt 0.12717424 0.58020884
vt 0.1551617 0.54823804
vt 0.12717424 0.54823816
vt 0.1551617 0.58020884
vt 0.71334755 0.18542469
vt 0.7373368 0.45730364
vt 0.7373368 0.18542469
vt 0.6893582 0.45730364
vt 0.71334755 0.13744593
vt 0.6893582 0.13744593
vt 0.6646168 0.4594296
vt 0.6646168 0.13744591
vt 0.6413342 0.4658632
vt 0.6413341 0.13744591
vt 0.6168228 0.47480118
vt 0.6168228 0.13744594
vt 0.5235613 0.49915516
vt 0.13703623 0.13744594
vt 0.23029777 0.49915516
vt 0.32778406 0.51170516
vt 0.42607492 0.51170516
vt 0.13703623 0.47480118
vt 0.1125249 0.46586326
vt 0.1125249 0.13744594
vt 0.089242086 0.45942965
vt 0.089242086 0.13744594
vt 0.06450061 0.13744596
vt 0.06450061 0.45730358
vt 0.016522145 0.45730358
vt 0.040511407 0.1854246
vt 0.016522145 0.1854246
vt 0.040511407 0.13744596
vt 0.42611152 0.020029064
vt 0.3278207 0.117777064
vt 0.42611152 0.117777064
vt 0.3278207 0.020029064
vt 0.52359784 0.020029064
vt 0.52359784 0.117777064
vt 0.61685944 0.020029102
vt 0.6169977 0.117777064
vt 0.23033437 0.117777064
vt 0.23033437 0.020029064
vt 0.13700372 0.11777699
vt 0.13700372 0.02002903
vt 0.6413707 0.026757635
vt 0.6590118 0.04505711
vt 0.664838 0.07008793
vt 0.664838 0.117777064
vt 0.112561435 0.026757564
vt 0.09492038 0.045057043
vt 0.08902088 0.070087865
vt 0.08902088 0.11777699
vt 0.046364073 0.58588976
vt 0.008697313 0.5882054
vt 0.040683083 0.5882054
vt 0.048679728 0.58020884
vt 0.008697313 0.54022676
vt 0.048679728 0.54022676
vt 0.5328287 0.5402267
vt 0.54001105 0.54823804
vt 0.54001105 0.5402267
vt 0.5328287 0.58020866
vt 0.5448234 0.58020866
vt 0.5448234 0.54823804
vt 0.5538195 0.58020866
vt 0.581807 0.54823804
vt 0.5538195 0.54823804
vt 0.581807 0.58020866
vt 0.6177073 0.5802089
vt 0.6416967 0.5402267
vt 0.6177073 0.5402267
vt 0.6416967 0.5806253
vt 0.6177073 0.5858898
vt 0.6416966 0.5858898
vt 0.6416966 0.5915706
vt 0.6177073 0.5915706
vt 0.6416966 0.62355626
vt 0.6177073 0.62355626
vt 0.69442487 0.5882056
vt 0.6567584 0.5858896
vt 0.6624391 0.5882056
vt 0.6544427 0.5806253
vt 0.6544427 0.5402267
vt 0.69442487 0.5402267
vt 0.8000406 0.5544864
vt 0.7342783 0.4985111
vt 0.7342783 0.5544864
vt 0.8000406 0.4985111
vt 0.7233206 0.6392526
vt 0.66734576 0.9910961
vt 0.72332084 0.9910961
vt 0.66734576 0.6392526
vt 0.8141779 0.6392526
vt 0.87015295 0.9910961
vt 0.87015295 0.6392526
vt 0.8141779 0.9910961
vt 0.8000407 0.6263282
vt 0.7342783 0.570353
vt 0.7342783 0.6263282
vt 0.8000407 0.570353
vt 0.7342783 0.6392526
vt 0.8000407 0.9910961
vt 0.8000407 0.6392526
vt 0.73427856 0.9910961
vt 0.860623 0.04988527
vt 0.80604756 0.369743
vt 0.8606232 0.369743
vt 0.80604744 0.04988527
vt 0.8686195 0.369743
vt 0.92319536 0.04988527
vt 0.8686195 0.04988527
vt 0.92319536 0.369743
vt 0.860623 0.04988527
vt 0.8686195 0.369743
vt 0.8686195 0.04988527
vt 0.8606232 0.369743
vt 0.80604756 0.369743
vt 0.8606232 0.37773937
vt 0.8606232 0.369743
vt 0.80604756 0.37773952
vt 0.80604744 0.04988527
vt 0.8606232 0.041888755
vt 0.80604744 0.04188889
vt 0.860623 0.04988527
vt 0.063642055 0.923036
vt 0.095627695 0.651157
vt 0.063642055 0.651157
vt 0.101308554 0.6488414
vt 0.30236846 0.9774375
vt 0.63938564 0.923036
vt 0.5994034 0.6431606
vt 0.14360635 0.615173
vt 0.1156189 0.615173
vt 0.10362421 0.6431606
vt 0.1156189 0.6031784
vt 0.10362421 0.6031784
vt 0.55942124 0.615173
vt 0.55942124 0.60317826
vt 0.14360635 0.6031784
vt 0.58740884 0.615173
vt 0.5994034 0.60317826
vt 0.58740884 0.60317826
vt 0.6017192 0.64884126
vt 0.6073999 0.651157
vt 0.63938564 0.651157
vt 0.4981455 0.9648875
vt 0.5915454 0.9404783
vt 0.40065917 0.9774374
vt 0.20488225 0.9648875
vt 0.11148232 0.9404783
vt 0.92899615 0.4587948
vt 0.8890138 0.44680008
vt 0.8890138 0.4587948
vt 0.91300327 0.44680008
vt 0.98003334 0.43028525
vt 0.93699247 0.40681794
vt 0.91300327 0.40681794
vt 0.9617339 0.4126442
vt 0.9289959 0.48678237
vt 0.970769 0.51876813
vt 0.970769 0.87061137
vt 0.98676187 0.93458307
vt 0.98676187 0.4547966
vt 0.9050067 0.87061137
vt 0.9289959 0.9025973
vt 0.9289959 0.9305848
vt 0.91300327 0.9425795
vt 0.91300327 0.9825617
vt 0.9617339 0.97673535
vt 0.98003334 0.9590944
vt 0.93699247 0.9825617
vt 0.8890138 0.9305848
vt 0.8890138 0.9425795
vt 0.8890138 0.9025973
vt 0.8890138 0.48678237
vt 0.9050067 0.51876813
vt 0.100452505 0.54022676
vt 0.10763483 0.54823816
vt 0.10763484 0.54022676
vt 0.100452505 0.58020884
vt 0.112447195 0.58020884
vt 0.112447195 0.54823816
vt 0.17237273 0.54022676
vt 0.17955506 0.58020884
vt 0.17955506 0.54022676
vt 0.17237273 0.54823816
vt 0.16756035 0.58020884
vt 0.16756035 0.54823804
vt 0.12717424 0.5268329
vt 0.1551617 0.5196506
vt 0.12717424 0.5196506
vt 0.15516171 0.5268329
vt 0.12685075 0.53779536
vt 0.15516171 0.5298755
vt 0.12685075 0.5298756
vt 0.15516171 0.53779536
vt 0.15516165 0.5399143
vt 0.1268507 0.54467165
vt 0.15516171 0.54467165
vt 0.1268507 0.5399143
vt 0.5964298 0.5402267
vt 0.6036122 0.5802089
vt 0.6036122 0.5402267
vt 0.5964298 0.5482381
vt 0.59161747 0.58020866
vt 0.59161747 0.54823804
vt 0.5538195 0.5220061
vt 0.581807 0.51482373
vt 0.5538195 0.51482373
vt 0.581807 0.52200603
vt 0.581807 0.54467165
vt 0.553496 0.53991437
vt 0.553496 0.54467165
vt 0.581807 0.5399143
vt 0.553496 0.5298755
vt 0.581807 0.53779536
vt 0.581807 0.5298756
vt 0.553496 0.53779536
vn 1 0 0
vn 0.98054296 0 -0.19630411
vn 0.98054296 0 -0.19630411
vn 1 0 0
vn 0.7014017 0 -0.71276623
vn 0.7014017 0 -0.7127662
vn 0.18841827 0 -0.9820889
vn 0.18841827 0 -0.9820888
vn -0 0 -1
vn -0 0 -1
vn -0 0 -1
vn -0 0 -1
vn -0 0 -1
vn -0 0 -1
vn 1 6.437213E-07 0
vn 1 0 0
vn 1 0 0
vn 0.99265265 -0.12099879 0
vn 1 0 0
vn 0.9930194 -0.117950946 0
vn 0.86019385 -0.5099671 0
vn 0.87395674 -0.4860037 0
vn 0.46062228 -0.88759625 0
vn 0.5030815 -0.864239 0
vn 0.10581352 -0.99438596 0
vn 0.13067287 -0.9914255 0
vn -0 -1 0
vn -0.13067281 -0.9914255 0
vn -0 -1 0
vn -0 -1 0
vn -0 -1 0
vn -0.105813526 -0.99438596 0
vn -0.46062234 -0.88759625 0
vn -0.5030815 -0.864239 0
vn -0.86019385 -0.5099671 0
vn -0.87395674 -0.48600376 0
vn -0.9930194 -0.11795094 0
vn -0.99265265 -0.12099865 0
vn -1 0 0
vn -1 -1.2494696E-07 0
vn -1 0 0
vn -1 0 0
vn 0.0625361 0 0.9980427
vn -0.062535875 0 0.9980427
vn 0.0625361 0 0.9980427
vn -0.06253587 0 0.9980427
vn 0.18641435 0 0.9824713
vn 0.18645999 4.6942223E-05 0.9824625
vn 0.2879999 7.225747E-05 0.95763046
vn 0.2919132 0.00010722078 0.9564448
vn -0.1865059 0 0.98245376
vn -0.18646024 4.6968114E-05 0.9824624
vn -0.2918683 6.0438666E-05 0.9564585
vn -0.287951 0.00012332649 0.9576452
vn 0.3356729 4.6540958E-05 0.94197863
vn 0.33568162 5.046887E-05 0.9419755
vn 0.33567545 3.967736E-05 0.9419777
vn 0.3356409 0 0.94198996
vn -0.3356729 4.6540958E-05 0.94197863
vn -0.33568162 5.046887E-05 0.9419755
vn -0.33567545 3.967736E-05 0.9419777
vn -0.3356409 0 0.94198996
vn -0 1 0
vn -0 1 0
vn -0 1 0
vn -0 1 0
vn -0 1 0
vn -0 1 0
vn -1 0 0
vn -1 0 0
vn -1 0 0
vn -1 0 0
vn -1 0 0
vn -1 0 0
vn -0 0 -1
vn -0 0 -1
vn -0 0 -1
vn -0 0 -1
vn -0.9805431 0 -0.19630393
vn -1 0 0
vn -1 0 0
vn -0.9805431 0 -0.19630396
vn -0.7014019 0 -0.71276593
vn -0.7014019 0 -0.71276593
vn -0.18841833 0 -0.9820888
vn -0.18841836 0 -0.9820888
vn -0 0 -1
vn -0 0 -1
vn -0 1 0
vn -0 1 0
vn -0 1 0
vn -0 1 0
vn -0 1 0
vn -0 1 0
vn -1 0 0
vn -1 0 0
vn -1 0 0
vn -1 0 0
vn -0 1 0
vn -0 1 0
vn -0 1 0
vn -0 1 0
vn -0 -1 0
vn -0 -1 0
vn -0 -1 0
vn -0 -1 0
vn 1 0 0
vn 1 0 0
vn 1 0 0
vn 1 0 0
vn -0 0 -1
vn -0 0 -1
vn -0 0 -1
vn -0 0 -1
vn -0 -1 0
vn -0 -1 0
vn -0 -1 0
vn -0 -1 0
vn -0 1 0
vn -0 1 0
vn -0 1 0
vn -0 1 0
vn -0 0 -1
vn -0 0 -1
vn -0 0 -1
vn -0 0 -1
vn 1 0 0
vn 1 0 0
vn 1 0 0
vn 1 0 0
vn -1 0 0
vn -1 0 0
vn -1 0 0
vn -1 0 0
vn -0 1 0
vn -0 1 0
vn -0 1 0
vn -0 1 0
vn -0 1 0
vn -0 1 0
vn -0 1 0
vn -0 1 0
vn -0 1 0
vn -0 1 0
vn -0 1 0
vn -0 1 0
vn -0 1 0
vn -0 1 0
vn -0 1 0
vn -0 1 0
vn -0 1 0
vn -0 1 0
vn -0 1 0
vn -0 1 0
vn -0 1 0
vn -0 1 0
vn -0 1 0
vn -0 1 0
vn -0 1 0
vn -0 1 0
vn -0 0 -1
vn -0 0 -1
vn -0 0 -1
vn -0 0 -1
vn -2.6515448E-07 0 -1
vn -0 0 -1
vn -0 0 -1
vn -0 0 -1
vn -1.2830773E-06 -2.7053358E-07 -1
vn -5.0338184E-07 3.967723E-06 -1
vn 2.3086939E-07 2.434322E-06 -1
vn 2.8851292E-07 2.1186524E-07 -1
vn -0 0 -1
vn 6.3671575E-07 -2.2227139E-06 -1
vn 2.0711564E-06 -1.0176713E-06 -1
vn -0 0 -1
vn -0 0 -1
vn -0 0 -1
vn -0 0 -1
vn -0 0 -1
vn -0 0 -1
vn -0 0 -1
vn -0 0 -1
vn 1.2061779E-06 -1.0779289E-06 -1
vn -1.3810237E-06 -1.0779283E-06 -1
vn -8.697673E-07 -2.1242174E-06 -1
vn -1 0 0
vn -1 0 0
vn -1 0 0
vn -1 0 0
vn -1 0 0
vn -1 0 0
vn 1 0 0
vn 1 0 0
vn 1 0 0
vn 1 0 0
vn 1 0 0
vn 1 0 0
vn -0 1 0
vn -0 1 0
vn -0 1 0
vn -0 1 0
vn -9.409937E-07 9.468458E-07 -1
vn -1.7720355E-07 -1.7834612E-06 -1
vn -1.1442029E-06 1.6732541E-06 -1
vn -0 -2.5098657E-06 -1
vn -1.4373188E-06 1 -1.12686486E-07
vn -1.683225E-06 1 1.3507088E-06
vn -1.4042454E-06 1 -3.0950775E-07
vn -1.7162982E-06 1 1.5475288E-06
vn 1 0 0
vn 1 0 0
vn 1 0 0
vn 1 0 0
vn 1 0 0
vn 1 0 0
vn -0 1 0
vn -0 1 0
vn -0 1 0
vn -0 1 0
vn 2.060707E-06 1 3.597123E-06
vn 1.5279136E-06 1 4.264461E-07
vn 1.4562545E-06 1 0
vn 2.1323651E-06 1 4.0235645E-06
vn 6.904425E-07 -1.343167E-06 -1
vn 1.6239666E-06 1.99389E-06 -1
vn 1.8723334E-06 2.8817242E-06 -1
vn 4.420773E-07 -2.230995E-06 -1
g N64_Cart_0
f 3/3/3 2/2/2 1/1/1
f 4/4/4 1/1/1 2/2/2
f 2/2/2 3/3/3 5/5/5
f 6/6/6 5/5/5 3/3/3
f 6/6/6 7/7/7 5/5/5
f 8/8/8 5/5/5 7/7/7
f 7/7/7 9/9/9 8/8/8
f 10/10/10 8/8/8 9/9/9
f 13/13/13 12/12/12 11/11/11
f 14/14/14 11/11/11 12/12/12
f 17/17/17 16/16/16 15/15/15
f 16/16/16 18/18/18 15/15/15
f 15/15/15 18/18/18 19/19/19
f 18/18/18 20/20/20 19/19/19
f 18/18/18 21/21/21 20/20/20
f 22/22/22 20/20/20 21/21/21
f 21/21/21 23/23/23 22/22/22
f 24/24/24 22/22/22 23/23/23
f 23/23/23 25/25/25 24/24/24
f 26/26/26 24/24/24 25/25/25
f 27/27/27 26/26/26 25/25/25
f 28/28/28 26/26/26 27/27/27
f 29/29/29 28/28/28 27/27/27
f 30/30/30 29/29/29 27/27/27
f 31/31/31 30/30/30 27/27/27
f 32/32/32 28/28/28 29/29/29
f 32/32/32 33/33/33 28/28/28
f 34/34/34 28/28/28 33/33/33
f 33/33/33 35/35/35 34/34/34
f 36/36/36 34/34/34 35/35/35
f 36/36/36 35/35/35 37/37/37
f 38/38/38 37/37/37 35/35/35
f 37/37/37 38/38/38 39/39/39
f 40/40/40 37/37/37 39/39/39
f 41/41/41 40/40/40 39/39/39
f 42/42/42 37/37/37 40/40/40
f 45/45/45 44/44/44 43/43/43
f 46/46/46 43/43/43 44/44/44
f 43/43/43 47/47/47 45/45/45
f 48/48/48 45/45/45 47/47/47
f 47/47/47 49/49/49 48/48/48
f 50/50/50 48/48/48 49/49/49
f 44/44/44 51/51/51 46/46/46
f 52/52/52 46/46/46 51/51/51
f 51/51/51 53/53/53 52/52/52
f 54/54/54 52/52/52 53/53/53
f 55/55/55 50/50/50 49/49/49
f 56/56/56 50/50/50 55/55/55
f 57/57/57 50/50/50 56/56/56
f 58/58/58 50/50/50 57/57/57
f 59/59/59 54/54/54 53/53/53
f 60/60/60 59/59/59 53/53/53
f 61/61/61 60/60/60 53/53/53
f 62/62/62 61/61/61 53/53/53
f 65/65/65 64/64/64 63/63/63
f 63/63/63 64/64/64 66/66/66
f 64/64/64 67/67/67 66/66/66
f 67/67/67 68/68/68 66/66/66
f 71/71/71 70/70/70 69/69/69
f 69/69/69 70/70/70 72/72/72
f 72/72/72 70/70/70 73/73/73
f 73/73/73 70/70/70 74/74/74
f 77/77/77 76/76/76 75/75/75
f 78/78/78 75/75/75 76/76/76
f 81/81/81 80/80/80 79/79/79
f 82/82/82 79/79/79 80/80/80
f 79/79/79 82/82/82 83/83/83
f 84/84/84 83/83/83 82/82/82
f 84/84/84 85/85/85 83/83/83
f 86/86/86 83/83/83 85/85/85
f 85/85/85 87/87/87 86/86/86
f 88/88/88 86/86/86 87/87/87
f 91/91/91 90/90/90 89/89/89
f 90/90/90 92/92/92 89/89/89
f 92/92/92 93/93/93 89/89/89
f 93/93/93 94/94/94 89/89/89
f 97/97/97 96/96/96 95/95/95
f 98/98/98 95/95/95 96/96/96
f 101/101/101 100/100/100 99/99/99
f 102/102/102 99/99/99 100/100/100
f 105/105/105 104/104/104 103/103/103
f 106/106/106 103/103/103 104/104/104
f 109/109/109 108/108/108 107/107/107
f 110/110/110 107/107/107 108/108/108
f 113/113/113 112/112/112 111/111/111
f 114/114/114 111/111/111 112/112/112
f 117/117/117 116/116/116 115/115/115
f 118/118/118 115/115/115 116/116/116
f 121/121/121 120/120/120 119/119/119
f 122/122/122 119/119/119 120/120/120
f 125/125/125 124/124/124 123/123/123
f 126/126/126 123/123/123 124/124/124
f 129/129/129 128/128/128 127/127/127
f 130/130/130 127/127/127 128/128/128
f 133/133/133 132/132/132 131/131/131
f 134/134/134 131/131/131 132/132/132
f 137/137/137 136/136/136 135/135/135
f 136/136/136 138/138/138 135/135/135
f 138/138/138 139/139/139 135/135/135
f 140/140/140 139/139/139 138/138/138
f 141/141/141 140/140/140 138/138/138
f 142/142/142 141/141/141 138/138/138
f 143/143/143 142/142/142 138/138/138
f 144/144/144 143/143/143 138/138/138
f 145/145/145 143/143/143 144/144/144
f 146/146/146 145/145/145 144/144/144
f 147/147/147 141/141/141 142/142/142
f 148/148/148 147/147/147 142/142/142
f 149/149/149 148/148/148 142/142/142
f 150/150/150 141/141/141 147/147/147
f 151/151/151 141/141/141 150/150/150
f 152/152/152 151/151/151 150/150/150
f 153/153/153 140/140/140 141/141/141
f 154/154/154 140/140/140 153/153/153
f 155/155/155 140/140/140 154/154/154
f 157/157/157 156/156/156 140/140/140
f 158/158/158 139/139/139 156/156/156
f 156/156/156 139/139/139 140/140/140
f 139/139/139 159/159/159 135/135/135
f 159/159/159 160/160/160 135/135/135
f 163/163/163 162/162/162 161/161/161
f 162/162/162 164/164/164 161/161/161
f 164/164/164 165/165/165 161/161/161
f 166/166/166 165/165/165 164/164/164
f 167/167/167 166/166/166 164/164/164
f 168/168/168 165/165/165 166/166/166
f 161/161/161 165/165/165 169/169/169
f 165/165/165 170/170/170 169/169/169
f 171/171/171 170/170/170 165/165/165
f 172/172/172 171/171/171 165/165/165
f 173/173/173 172/172/172 165/165/165
f 174/174/174 171/171/171 172/172/172
f 175/175/175 174/174/174 172/172/172
f 176/176/176 175/175/175 172/172/172
f 177/177/177 176/176/176 172/172/172
f 178/178/178 177/177/177 172/172/172
f 179/179/179 178/178/178 172/172/172
f 180/180/180 179/179/179 172/172/172
f 181/181/181 178/178/178 179/179/179
f 182/182/182 176/176/176 177/177/177
f 183/183/183 182/182/182 177/177/177
f 184/184/184 174/174/174 175/175/175
f 169/169/169 170/170/170 185/185/185
f 185/185/185 186/186/186 184/184/184
f 186/186/186 174/174/174 184/184/184
f 170/170/170 186/186/186 185/185/185
f 189/189/189 188/188/188 187/187/187
f 187/187/187 188/188/188 190/190/190
f 190/190/190 188/188/188 191/191/191
f 191/191/191 188/188/188 192/192/192
f 195/195/195 194/194/194 193/193/193
f 193/193/193 194/194/194 196/196/196
f 194/194/194 197/197/197 196/196/196
f 197/197/197 198/198/198 196/196/196
f 201/201/201 200/200/200 199/199/199
f 202/202/202 199/199/199 200/200/200
f 205/205/205 204/204/204 203/203/203
f 206/206/206 203/203/203 204/204/204
f 209/209/209 208/208/208 207/207/207
f 210/210/210 207/207/207 208/208/208
f 213/213/213 212/212/212 211/211/211
f 211/211/211 212/212/212 214/214/214
f 212/212/212 215/215/215 214/214/214
f 215/215/215 216/216/216 214/214/214
f 219/219/219 218/218/218 217/217/217
f 220/220/220 217/217/217 218/218/218
f 223/223/223 222/222/222 221/221/221
f 224/224/224 221/221/221 222/222/222
f 227/227/227 226/226/226 225/225/225
f 228/228/228 225/225/225 226/226/226
